<?xml version="1.0" encoding="UTF-8"?>
<svg xmlns="http://www.w3.org/2000/svg" viewBox="0 0 250 250" role="img" aria-label="Luminox Community Scale subscription artwork">
  <defs>
    <linearGradient id="accent" x1="28" y1="26" x2="222" y2="220" gradientUnits="userSpaceOnUse">
      <stop stop-color="#F3CC63"/>
      <stop offset=".52" stop-color="#55DEA0"/>
      <stop offset="1" stop-color="#56C7F5"/>
    </linearGradient>
    <linearGradient id="gold" x1="96" y1="65" x2="162" y2="157" gradientUnits="userSpaceOnUse">
      <stop stop-color="#FFF4B1"/>
      <stop offset=".35" stop-color="#F3CC63"/>
      <stop offset=".72" stop-color="#D59625"/>
      <stop offset="1" stop-color="#7C4316"/>
    </linearGradient>
    <radialGradient id="aura" cx="0" cy="0" r="1" gradientTransform="translate(125 94) rotate(90) scale(126)" gradientUnits="userSpaceOnUse">
      <stop stop-color="#F3CC63" stop-opacity=".3"/>
      <stop offset=".48" stop-color="#55DEA0" stop-opacity=".1"/>
      <stop offset="1" stop-color="#050B14" stop-opacity="0"/>
    </radialGradient>
    <linearGradient id="panel" x1="19" y1="15" x2="229" y2="236" gradientUnits="userSpaceOnUse">
      <stop stop-color="#0B1521"/>
      <stop offset="1" stop-color="#050B14"/>
    </linearGradient>
    <filter id="shadow" x="-35%" y="-35%" width="170%" height="185%">
      <feDropShadow dx="0" dy="7" stdDeviation="5" flood-color="#000" flood-opacity=".74"/>
    </filter>
    <filter id="nodeGlow" x="-180%" y="-180%" width="460%" height="460%">
      <feGaussianBlur in="SourceGraphic" stdDeviation="1.2" result="blur"/>
      <feMerge><feMergeNode in="blur"/><feMergeNode in="SourceGraphic"/></feMerge>
    </filter>
  </defs>

  <rect width="250" height="250" fill="#04060D"/>
  <rect x="6" y="6" width="238" height="238" rx="38" fill="url(#panel)"/>
  <rect x="6.75" y="6.75" width="236.5" height="236.5" rx="37.25" fill="none" stroke="url(#accent)" stroke-width="1.5" stroke-opacity=".78"/>
  <rect x="12" y="12" width="226" height="226" rx="32" fill="url(#aura)"/>
  <g opacity=".16" stroke="#55DEA0" stroke-width=".65">
    <path d="M24 61h202M24 171h202M61 24v202M189 24v202"/>
    <circle cx="125" cy="106" r="91" fill="none" stroke-dasharray="2 8"/>
  </g>

  
    <g transform="translate(24 20)" stroke="url(#accent)" fill="none" stroke-linecap="round" stroke-linejoin="round">
      <path d="m8 1 7 2.6V9c0 4.8-2.7 8.8-7 11-4.3-2.2-7-6.2-7-11V3.6L8 1Z" stroke-width="1.4"/>
      <circle cx="8" cy="7.6" r="2.2" stroke-width="1.1"/>
      <path d="M4.8 14c.7-2.4 1.7-3.6 3.2-3.6s2.5 1.2 3.2 3.6" stroke-width="1.1"/>
    </g>
  
  <text x="48" y="31" fill="#DDE5F8" fill-opacity=".84" font-family="Arial, Helvetica, sans-serif" font-size="8.5" font-weight="700" letter-spacing="1.3">COMMUNITY EDITION</text>
  <text x="220" y="31" fill="#F3CC63" font-family="Arial, Helvetica, sans-serif" font-size="10" font-weight="800" text-anchor="end">III</text>

  
    <circle cx="125" cy="106" r="78" fill="none" stroke="url(#accent)" stroke-width="1.2" stroke-opacity=".28"/>
    <circle cx="125" cy="106" r="68" fill="none" stroke="#55DEA0" stroke-width="1" stroke-opacity=".2" stroke-dasharray="2 7"/>
    <path d="M69 144 93 119l28 10 26-34 35 16" fill="none" stroke="url(#accent)" stroke-width="2.6" stroke-linecap="round" stroke-linejoin="round" opacity=".92"/>
    <g filter="url(#nodeGlow)">
      <circle cx="69" cy="144" r="4" fill="#55DEA0"/>
      <circle cx="93" cy="119" r="4.3" fill="#F3CC63"/>
      <circle cx="121" cy="129" r="4" fill="#56C7F5"/>
      <circle cx="147" cy="95" r="4.7" fill="#F3CC63"/>
      <circle cx="182" cy="111" r="4" fill="#55DEA0"/>
    </g>
    <path d="M103 48 111 34l14 11 14-11 8 14-8 12h-28l-8-12Z" fill="#091020" stroke="url(#gold)" stroke-width="2" stroke-linejoin="round"/>
    <circle cx="111" cy="34" r="2.8" fill="#55DEA0"/><circle cx="125" cy="45" r="2.8" fill="#F3CC63"/><circle cx="139" cy="34" r="2.8" fill="#56C7F5"/>
  
  
    <path d="m125 52 47 17v38c0 35-18 61-47 77-29-16-47-42-47-77V69l47-17Z" fill="#06111A" fill-opacity=".78" stroke="url(#accent)" stroke-width="2.3" stroke-linejoin="round"/>
    <circle cx="125" cy="94" r="14" stroke="#55DEA0" stroke-width="1.8" stroke-opacity=".65"/>
    <circle cx="96" cy="110" r="9" stroke="#F3CC63" stroke-width="1.6" stroke-opacity=".58"/>
    <circle cx="154" cy="110" r="9" stroke="#56C7F5" stroke-width="1.6" stroke-opacity=".58"/>
    <path d="M92 139c3-18 14-27 33-27s30 9 33 27M80 134c2-11 8-18 18-20M170 134c-2-11-8-18-18-20" stroke="url(#accent)" stroke-width="1.8" stroke-linecap="round" stroke-opacity=".62"/>
  

  <g filter="url(#shadow)">
    <path d="M104 71h25v58h36v23h-61V71Z" fill="#1B0E04" stroke="#07050A" stroke-width="6" stroke-linejoin="round"/>
    <path d="M101 67h25v58h36v23h-61V67Z" fill="url(#gold)" stroke="#FFF0A4" stroke-width="1.6" stroke-linejoin="round"/>
    <path d="M107 74h12v56h35" fill="none" stroke="#FFF8D2" stroke-width="2.2" stroke-linecap="round" stroke-linejoin="round" stroke-opacity=".58"/>
  </g>

  <path d="M42 184h166" stroke="url(#accent)" stroke-width="1" stroke-opacity=".38"/>
  <text x="125" y="211" fill="#F8FAFF" font-family="Arial, Helvetica, sans-serif" font-size="22" font-weight="800" letter-spacing="2.5" text-anchor="middle">SCALE</text>
  <g transform="translate(92 225)">
    <rect x="0" y="0" width="18" height="4" rx="2" fill="url(#accent)"/><rect x="21" y="0" width="18" height="4" rx="2" fill="url(#accent)"/><rect x="42" y="0" width="18" height="4" rx="2" fill="url(#accent)"/>
  </g>
</svg>